<?xml version="1.0" standalone="no"?>
<!DOCTYPE svg PUBLIC "-//W3C//DTD SVG 20010904//EN"
 "http://www.w3.org/TR/2001/REC-SVG-20010904/DTD/svg10.dtd">
<svg version="1.0" xmlns="http://www.w3.org/2000/svg"
 width="542.000000pt" height="542.000000pt" viewBox="0 0 542.000000 542.000000"
 preserveAspectRatio="xMidYMid meet">
<metadata>
Created by potrace 1.11, written by Peter Selinger 2001-2013
</metadata>
<g transform="translate(0.000000,542.000000) scale(0.100000,-0.100000)"
fill="#000000" stroke="none">
<path d="M0 2710 l0 -2710 2708 2 2707 3 3 2708 2 2707 -2710 0 -2710 0 0
-2710z m2800 1880 l0 -220 -407 -2 -408 -3 -3 -1102 -2 -1103 -275 0 -275 0 0
1105 0 1105 -400 0 -400 0 0 220 0 220 1085 0 1085 0 0 -220z m850 -885 l0
-1105 580 0 580 0 0 -220 0 -220 -860 0 -860 0 0 1325 0 1325 280 0 280 0 0
-1105z m-2610 -2270 c206 -86 383 -161 393 -167 16 -8 17 -22 15 -116 l-3
-106 -135 -57 c-74 -31 -253 -106 -398 -167 l-263 -110 3 130 3 131 259 92
258 92 -118 42 c-66 23 -182 63 -259 90 l-140 49 -3 132 c-1 72 1 129 5 127 4
-3 177 -76 383 -162z m1298 -947 l-3 -103 -417 -3 -418 -2 0 105 0 105 420 0
421 0 -3 -102z"/>
</g>
</svg>
