<?xml version="1.0" standalone="no"?>
<!DOCTYPE svg PUBLIC "-//W3C//DTD SVG 20010904//EN"
 "http://www.w3.org/TR/2001/REC-SVG-20010904/DTD/svg10.dtd">
<svg version="1.0" xmlns="http://www.w3.org/2000/svg"
 width="542.000000pt" height="542.000000pt" viewBox="0 0 542.000000 542.000000"
 preserveAspectRatio="xMidYMid meet">
<metadata>
Created by potrace 1.11, written by Peter Selinger 2001-2013
</metadata>
<g transform="translate(0.000000,542.000000) scale(0.100000,-0.100000)"
fill="#000000" stroke="none">
<path d="M0 2710 l0 -2710 2710 0 2710 0 0 2710 0 2710 -2140 0 -2140 0 0
-2705 0 -2705 -35 0 -35 0 0 2705 0 2705 -535 0 -535 0 0 -2710z m1790 1585
l0 -25 -175 0 -175 0 0 25 0 25 175 0 175 0 0 -25z m335 0 c0 -19 -7 -20 -145
-20 -143 0 -145 0 -148 23 l-3 23 148 -3 c140 -3 148 -4 148 -23z m395 0 l0
-25 -155 0 -155 0 0 25 0 25 155 0 155 0 0 -25z m398 3 c-3 -23 -5 -23 -158
-23 -153 0 -155 0 -158 23 l-3 22 161 0 161 0 -3 -22z m372 -3 l0 -25 -165 0
-165 0 0 25 0 25 165 0 165 0 0 -25z m710 -60 l0 -25 -164 0 c-165 0 -184 4
-172 35 4 12 35 15 171 15 l165 0 0 -25z m-2562 -138 l3 -137 -26 0 -25 0 0
133 c0 74 3 137 7 141 4 4 14 5 23 4 12 -3 15 -26 18 -141z m1892 3 c0 -133
-1 -140 -20 -140 -19 0 -20 7 -20 133 0 74 3 137 7 140 3 4 12 7 20 7 10 0 13
-30 13 -140z m360 -85 l0 -135 -25 0 -25 0 0 135 0 135 25 0 25 0 0 -135z
m350 0 c0 -128 -1 -135 -20 -135 -19 0 -20 7 -20 135 0 128 1 135 20 135 19 0
20 -7 20 -135z m-2230 -135 c0 -19 -7 -20 -165 -20 -158 0 -165 1 -165 20 0
19 7 20 165 20 158 0 165 -1 165 -20z m380 0 c0 -13 7 -20 20 -20 19 0 20 -7
20 -140 0 -133 -1 -140 -20 -140 -19 0 -20 7 -20 140 l0 140 -180 0 c-173 0
-180 1 -180 20 0 19 7 20 180 20 173 0 180 -1 180 -20z m730 0 c0 -19 -7 -20
-160 -20 -153 0 -160 1 -160 20 0 19 7 20 160 20 153 0 160 -1 160 -20z m370
0 c0 -19 -7 -20 -165 -20 -158 0 -165 1 -165 20 0 19 7 20 165 20 158 0 165
-1 165 -20z m-685 -160 c0 -128 -1 -135 -20 -135 -19 0 -20 8 -23 138 l-3 138
23 -3 c23 -3 23 -5 23 -138z m1083 3 c-3 -130 -4 -138 -23 -138 -19 0 -20 8
-23 124 -1 69 0 131 2 138 3 7 15 13 26 13 20 0 20 -4 18 -137z m352 -3 c0
-133 -1 -140 -20 -140 -19 0 -20 7 -20 140 0 133 1 140 20 140 19 0 20 -7 20
-140z m-1810 -330 c0 -133 -1 -140 -20 -140 -19 0 -20 7 -20 140 0 133 1 140
20 140 19 0 20 -7 20 -140z m375 0 c0 -132 0 -135 -22 -138 -23 -3 -23 -3 -23
131 0 73 3 137 7 141 4 4 14 5 23 4 13 -3 15 -24 15 -138z m1083 -3 l3 -138
-23 3 c-22 3 -23 7 -26 127 -3 138 0 154 25 149 16 -3 18 -19 21 -141z m352 3
c0 -133 -1 -140 -20 -140 -19 0 -20 7 -20 140 0 133 1 140 20 140 19 0 20 -7
20 -140z m-1810 -305 c0 -118 -1 -125 -20 -125 -19 0 -20 7 -20 125 0 118 1
125 20 125 19 0 20 -7 20 -125z m380 0 l0 -125 -25 0 -25 0 0 125 0 125 25 0
25 0 0 -125z m1080 0 l0 -125 -25 0 -25 0 0 125 0 125 25 0 25 0 0 -125z m350
0 c0 -118 -1 -125 -20 -125 -19 0 -20 7 -20 125 0 118 1 125 20 125 19 0 20
-7 20 -125z m-1810 -320 c0 -128 -1 -135 -20 -135 -19 0 -20 7 -20 135 0 128
1 135 20 135 19 0 20 -7 20 -135z m380 0 l0 -135 -25 0 -25 0 0 135 0 135 25
0 25 0 0 -135z m1080 0 l0 -135 -25 0 -25 0 0 135 0 135 25 0 25 0 0 -135z
m350 0 c0 -128 -1 -135 -20 -135 -19 0 -20 7 -20 135 0 128 1 135 20 135 19 0
20 -7 20 -135z m-1810 -315 c0 -133 -1 -140 -20 -140 -19 0 -20 7 -20 140 0
133 1 140 20 140 19 0 20 -7 20 -140z m375 0 c0 -128 -1 -135 -20 -135 -19 0
-20 8 -23 138 l-3 138 23 -3 c23 -3 23 -5 23 -138z m1083 3 c-3 -130 -4 -138
-23 -138 -19 0 -20 8 -23 124 -1 69 0 131 2 138 3 7 15 13 26 13 20 0 20 -4
18 -137z m352 -3 c0 -133 -1 -140 -20 -140 -19 0 -20 7 -20 140 0 133 1 140
20 140 19 0 20 -7 20 -140z m358 -177 l3 -23 -160 0 c-149 0 -161 1 -161 18 0
10 3 22 7 26 4 3 75 5 157 4 148 -3 151 -3 154 -25z m392 2 l0 -25 -174 0
c-175 0 -194 4 -182 35 4 12 37 15 181 15 l175 0 0 -25z m398 -2 l3 -23 -190
0 -191 0 0 25 0 25 188 -2 c185 -3 187 -3 190 -25z m-2958 -133 c0 -133 -1
-140 -20 -140 -19 0 -20 7 -20 140 0 133 1 140 20 140 19 0 20 -7 20 -140z
m375 0 c0 -132 0 -135 -22 -138 -23 -3 -23 -3 -23 131 0 73 3 137 7 141 4 4
14 5 23 4 13 -3 15 -24 15 -138z m1083 -3 l3 -138 -23 3 c-22 3 -23 7 -26 127
-3 138 0 154 25 149 16 -3 18 -19 21 -141z m1522 -62 l0 -135 -25 0 -25 0 0
135 0 135 25 0 25 0 0 -135z m-2690 -135 c0 -19 -7 -20 -155 -20 -148 0 -155
1 -155 20 0 19 7 20 155 20 148 0 155 -1 155 -20z m1480 0 c0 -19 -7 -20 -170
-20 -163 0 -170 1 -170 20 0 19 7 20 170 20 163 0 170 -1 170 -20z m400 0 c0
-19 -7 -20 -180 -20 -173 0 -180 1 -180 20 0 19 7 20 180 20 173 0 180 -1 180
-20z m370 0 c0 -19 -7 -20 -180 -20 -173 0 -180 1 -180 20 0 19 7 20 180 20
173 0 180 -1 180 -20z m380 0 c0 -19 -7 -20 -180 -20 -173 0 -180 1 -180 20 0
19 7 20 180 20 173 0 180 -1 180 -20z m-3599 -417 c58 -60 86 -96 87 -113 1
-19 -21 -47 -90 -117 l-92 -93 -23 22 -24 22 83 83 83 83 -80 80 c-78 78 -79
80 -60 100 10 11 21 20 24 20 4 0 45 -39 92 -87z m489 -288 l0 -25 -165 0
-165 0 0 25 0 25 165 0 165 0 0 -25z"/>
</g>
</svg>
